<?xml version="1.0" encoding="UTF-8" standalone="no"?>
<!DOCTYPE svg PUBLIC "-//W3C//DTD SVG 1.1//EN" "http://www.w3.org/Graphics/SVG/1.1/DTD/svg11.dtd">
<svg width="100%" height="100%" viewBox="0 0 36 36" version="1.1" xmlns="http://www.w3.org/2000/svg" xmlns:xlink="http://www.w3.org/1999/xlink" xml:space="preserve" xmlns:serif="http://www.serif.com/" style="fill-rule:evenodd;clip-rule:evenodd;stroke-linejoin:round;stroke-miterlimit:2;">
    <g id="plot" transform="matrix(0.990461,-1.11022e-16,0,1,-0.487897,-0.398055)">
        <g transform="matrix(1,0,0,1,-4.01281,6.50769)">
            <path d="M28.791,10.346C28.791,9.494 28.092,8.802 27.232,8.802L8.768,8.802C7.908,8.802 7.209,9.494 7.209,10.346L7.209,13.435C7.209,14.287 7.908,14.979 8.768,14.979L27.232,14.979C28.092,14.979 28.791,14.287 28.791,13.435L28.791,10.346Z" style="fill:rgb(77,101,125);"/>
        </g>
        <g transform="matrix(1,0,0,1,3.83001,-4.64819)">
            <path d="M28.791,10.346C28.791,9.494 28.092,8.802 27.232,8.802L8.768,8.802C7.908,8.802 7.209,9.494 7.209,10.346L7.209,13.435C7.209,14.287 7.908,14.979 8.768,14.979L27.232,14.979C28.092,14.979 28.791,14.287 28.791,13.435L28.791,10.346Z" style="fill:rgb(77,101,125);"/>
        </g>
        <g transform="matrix(1,0,0,1,3.83001,17.6636)">
            <path d="M28.791,10.346C28.791,9.494 28.092,8.802 27.232,8.802L8.768,8.802C7.908,8.802 7.209,9.494 7.209,10.346L7.209,13.435C7.209,14.287 7.908,14.979 8.768,14.979L27.232,14.979C28.092,14.979 28.791,14.287 28.791,13.435L28.791,10.346Z" style="fill:rgb(77,101,125);"/>
        </g>
        <g transform="matrix(0.468817,-0.554075,0.235188,0.198999,2.76289,20.5049)">
            <path d="M28.791,10.346C28.791,9.494 28.498,8.802 28.136,8.802L7.864,8.802C7.502,8.802 7.209,9.494 7.209,10.346L7.209,13.435C7.209,14.287 7.502,14.979 7.864,14.979L28.136,14.979C28.498,14.979 28.791,14.287 28.791,13.435L28.791,10.346Z" style="fill:rgb(77,101,125);"/>
        </g>
        <g transform="matrix(-3.78155e-16,-0.832856,0.308081,-2.0372e-16,24.4307,33.2818)">
            <path d="M28.791,10.346C28.791,9.494 28.537,8.802 28.225,8.802L7.775,8.802C7.463,8.802 7.209,9.494 7.209,10.346L7.209,13.435C7.209,14.287 7.463,14.979 7.775,14.979L28.225,14.979C28.537,14.979 28.791,14.287 28.791,13.435L28.791,10.346Z" style="fill:rgb(77,101,125);"/>
        </g>
    </g>
</svg>
