<?xml version="1.0" encoding="UTF-8" standalone="no"?>
<!DOCTYPE svg PUBLIC "-//W3C//DTD SVG 1.1//EN" "http://www.w3.org/Graphics/SVG/1.1/DTD/svg11.dtd">
<svg width="100%" height="100%" viewBox="0 0 36 36" version="1.1" xmlns="http://www.w3.org/2000/svg" xmlns:xlink="http://www.w3.org/1999/xlink" xml:space="preserve" xmlns:serif="http://www.serif.com/" style="fill-rule:evenodd;clip-rule:evenodd;stroke-linejoin:round;stroke-miterlimit:2;">
    <g transform="matrix(1,0,0,0.850049,-0.390481,0.571695)">
        <g transform="matrix(1.37355,0,0,1.4769,-6.3335,15.1376)">
            <path d="M28.791,10.346C28.791,9.494 28.158,8.802 27.379,8.802L8.621,8.802C7.842,8.802 7.209,9.494 7.209,10.346L7.209,13.435C7.209,14.287 7.842,14.979 8.621,14.979L27.379,14.979C28.158,14.979 28.791,14.287 28.791,13.435L28.791,10.346Z" style="fill:rgb(77,101,125);"/>
        </g>
        <g transform="matrix(1.37355,0,0,1.4769,-6.3335,2.97519)">
            <path d="M28.791,10.346C28.791,9.494 28.158,8.802 27.379,8.802L8.621,8.802C7.842,8.802 7.209,9.494 7.209,10.346L7.209,13.435C7.209,14.287 7.842,14.979 8.621,14.979L27.379,14.979C28.158,14.979 28.791,14.287 28.791,13.435L28.791,10.346Z" style="fill:rgb(77,101,125);"/>
        </g>
        <g transform="matrix(1.37355,0,0,1.4769,-6.3335,-9.18717)">
            <path d="M28.791,10.346C28.791,9.494 28.158,8.802 27.379,8.802L8.621,8.802C7.842,8.802 7.209,9.494 7.209,10.346L7.209,13.435C7.209,14.287 7.842,14.979 8.621,14.979L27.379,14.979C28.158,14.979 28.791,14.287 28.791,13.435L28.791,10.346Z" style="fill:rgb(77,101,125);"/>
        </g>
    </g>
</svg>
