<?xml version="1.0" encoding="UTF-8" standalone="no"?>
<!DOCTYPE svg PUBLIC "-//W3C//DTD SVG 1.1//EN" "http://www.w3.org/Graphics/SVG/1.1/DTD/svg11.dtd">
<svg width="100%" height="100%" viewBox="0 0 36 36" version="1.1" xmlns="http://www.w3.org/2000/svg" xmlns:xlink="http://www.w3.org/1999/xlink" xml:space="preserve" xmlns:serif="http://www.serif.com/" style="fill-rule:evenodd;clip-rule:evenodd;stroke-linejoin:round;stroke-miterlimit:2;">
    <g id="analyses" transform="matrix(0.983142,0,0,1,0.553311,0)">
        <g transform="matrix(1.37355,0,0,0.401754,-6.72398,26.2265)">
            <path d="M28.791,10.346C28.791,9.494 28.585,8.802 28.331,8.802L7.669,8.802C7.415,8.802 7.209,9.494 7.209,10.346L7.209,13.435C7.209,14.287 7.415,14.979 7.669,14.979L28.331,14.979C28.585,14.979 28.791,14.287 28.791,13.435L28.791,10.346Z" style="fill:rgb(77,101,125);"/>
        </g>
        <g transform="matrix(5.73354e-17,-0.941894,0.41319,2.51917e-17,-0.458579,38.4376)">
            <path d="M28.791,10.346C28.791,9.494 28.492,8.802 28.125,8.802L7.875,8.802C7.508,8.802 7.209,9.494 7.209,10.346L7.209,13.435C7.209,14.287 7.508,14.979 7.875,14.979L28.125,14.979C28.492,14.979 28.791,14.287 28.791,13.435L28.791,10.346Z" style="fill:rgb(77,101,125);"/>
        </g>
        <g transform="matrix(3.91209e-17,-0.638892,0.812453,4.97484e-17,1.6409,36.3942)">
            <path d="M28.791,10.346C28.791,9.494 27.926,8.802 26.86,8.802L9.14,8.802C8.074,8.802 7.209,9.494 7.209,10.346L7.209,13.435C7.209,14.287 8.074,14.979 9.14,14.979L26.86,14.979C27.926,14.979 28.791,14.287 28.791,13.435L28.791,10.346Z" style="fill:rgb(77,101,125);"/>
        </g>
        <g transform="matrix(7.46048e-17,-1.21839,0.812453,4.97484e-17,9.72083,40.5719)">
            <path d="M28.791,10.346C28.791,9.494 28.337,8.802 27.778,8.802L8.222,8.802C7.663,8.802 7.209,9.494 7.209,10.346L7.209,13.435C7.209,14.287 7.663,14.979 8.222,14.979L27.778,14.979C28.337,14.979 28.791,14.287 28.791,13.435L28.791,10.346Z" style="fill:rgb(77,101,125);"/>
        </g>
        <g transform="matrix(5.42848e-17,-0.886538,0.812453,4.97484e-17,17.8008,38.1795)">
            <path d="M28.791,10.346C28.791,9.494 28.167,8.802 27.399,8.802L8.601,8.802C7.833,8.802 7.209,9.494 7.209,10.346L7.209,13.435C7.209,14.287 7.833,14.979 8.601,14.979L27.399,14.979C28.167,14.979 28.791,14.287 28.791,13.435L28.791,10.346Z" style="fill:rgb(77,101,125);"/>
        </g>
    </g>
</svg>
