<?xml version="1.0" encoding="UTF-8" standalone="no"?>
<!DOCTYPE svg PUBLIC "-//W3C//DTD SVG 1.1//EN" "http://www.w3.org/Graphics/SVG/1.1/DTD/svg11.dtd">
<svg width="100%" height="100%" viewBox="0 0 36 36" version="1.1" xmlns="http://www.w3.org/2000/svg" xmlns:xlink="http://www.w3.org/1999/xlink" xml:space="preserve" xmlns:serif="http://www.serif.com/" style="fill-rule:evenodd;clip-rule:evenodd;stroke-linejoin:round;stroke-miterlimit:2;">
    <g id="world">
        <g transform="matrix(1.04707,0,0,1.04707,-0.707496,-2.08387)">
            <circle cx="17.866" cy="19.181" r="15.958" style="fill:rgb(70,93,116);"/>
        </g>
        <g transform="matrix(0.71059,0,0,0.71059,6.51067,7.20098)">
            <path d="M19.725,14.697C21.542,14.59 23.038,13.628 23.252,11.17C23.466,8.712 23.679,7.964 25.282,6.681C25.939,6.156 25.269,4.003 26.093,3.073C27.28,1.732 29.982,1.663 30.866,1.978C31.707,2.279 37.196,7.34 37.196,7.34L33.936,11.524L35.623,14L34.709,18C34.709,18 32.87,25.171 30.84,23.674C28.809,22.178 25.069,24.636 25.069,24.636C25.069,24.636 24,27.949 24.214,29.125C24.427,30.301 23.679,32.438 23.679,32.438L21.114,34.709L9.999,34.709L6.686,32.331C6.686,32.331 4.442,29.232 3.908,27.949C3.373,26.667 2.091,23.674 2.198,22.499C2.304,21.323 2.839,16.193 2.839,16.193C2.839,16.193 3.801,13.949 4.763,13.094C5.724,12.239 7.862,10.529 7.862,10.529L10.32,9.567C10.32,9.567 12.992,9.567 14.061,10.422C15.129,11.277 16.732,12.987 16.732,12.987L18,14.804C18,14.804 17.908,14.804 19.725,14.697Z" style="fill:rgb(43,67,91);"/>
        </g>
        <path d="M9.986,4.951C11.869,5.867 13.438,5.426 14.74,3.823L18,5.545L20.08,8.149L18,10.844L15.915,10.638L12.708,11.986L10.958,10.058L8.068,10.058C7.96,9.195 7.707,8.078 8.068,7.215C8.419,6.375 9.373,5.79 9.986,4.951Z" style="fill:rgb(43,67,91);"/>
    </g>
</svg>
